<svg width="16" height="16" viewBox="0 0 16 16" fill="none" xmlns="http://www.w3.org/2000/svg">
<path d="M13.6569 2.34315C12.538 1.22433 11.1126 0.462403 9.56072 0.153721C8.00888 -0.154961 6.40034 0.00346667 4.93853 0.608968C3.47673 1.21447 2.2273 2.23985 1.34825 3.55544C0.469192 4.87103 0 6.41775 0 8C0 9.58225 0.469191 11.129 1.34824 12.4446C2.2273 13.7601 3.47673 14.7855 4.93853 15.391C6.40034 15.9965 8.00888 16.155 9.56072 15.8463C11.1126 15.5376 12.538 14.7757 13.6569 13.6568C15.155 12.1554 15.9964 10.121 15.9964 8C15.9964 5.87897 15.155 3.84456 13.6569 2.34315ZM3.28596 12.714C2.35361 11.7817 1.71867 10.5938 1.46143 9.3006C1.2042 8.0074 1.33622 6.66695 1.8408 5.44878C2.34539 4.2306 3.19987 3.18941 4.2962 2.45687C5.39253 1.72433 6.68146 1.33333 8 1.33333C9.31854 1.33333 10.6075 1.72433 11.7038 2.45687C12.8001 3.18941 13.6546 4.2306 14.1592 5.44878C14.6638 6.66695 14.7958 8.0074 14.5386 9.3006C14.2813 10.5938 13.6464 11.7817 12.714 12.714C11.4629 13.9625 9.76752 14.6636 8 14.6636C6.23249 14.6636 4.53715 13.9625 3.28596 12.714ZM10.357 10.357C10.232 10.482 10.0624 10.5523 9.88562 10.5523C9.70881 10.5523 9.53924 10.482 9.41422 10.357L8 8.94281L6.58579 10.357C6.46076 10.482 6.29119 10.5523 6.11438 10.5523C5.93757 10.5523 5.768 10.482 5.64298 10.357C5.51795 10.232 5.44772 10.0624 5.44772 9.88562C5.44772 9.70881 5.51795 9.53924 5.64298 9.41421L7.05719 8L5.64298 6.58579C5.51795 6.46076 5.44772 6.29119 5.44772 6.11438C5.44772 5.93757 5.51795 5.768 5.64298 5.64298C5.768 5.51795 5.93757 5.44772 6.11438 5.44772C6.2912 5.44772 6.46076 5.51795 6.58579 5.64298L8 7.05719L9.41422 5.64298C9.53924 5.51795 9.70881 5.44772 9.88562 5.44772C10.0624 5.44772 10.232 5.51795 10.357 5.64298C10.482 5.768 10.5523 5.93757 10.5523 6.11438C10.5523 6.29119 10.482 6.46076 10.357 6.58579L8.94281 8L10.357 9.41421C10.482 9.53924 10.5523 9.70881 10.5523 9.88562C10.5523 10.0624 10.482 10.232 10.357 10.357Z" fill="#97ABE0"/>
</svg>
